<svg width="199.12000000000003" height="205.12" xmlns="http://www.w3.org/2000/svg">
 <defs>
  <clipPath transform="translate(2.56 2.57)" id="clip-path">
   <path id="svg_1" clip-rule="evenodd" fill="#ef4b59" d="m194.62,91.58965c-5.71,0.07 -11.43,0 -17.15,0.06c-1.88,0 -2.52,-0.63 -2.48,-2.49c0.1,-4.29 0.13,-8.58 0,-12.87c-0.07,-2.14 0.79,-2.67 2.77,-2.64c5.57,0.1 11.15,0 16.72,0.07c1.84,0 2.56,-0.57 2.51,-2.47c-0.1,-4.43 -0.09,-8.87 0,-13.3c0,-1.81 -0.7,-2.37 -2.41,-2.35c-5.37,0.07 -10.73,0 -16.09,0c-3.45,0 -3.4,0 -3.47,-3.39c-0.14,-6.23 1,-12.62 -1.19,-18.55c-3.16,-8.64 -11.08,-12.82 -20.27,-12.83c-2.64,0 -5.29,-0.07 -7.93,0c-1.77,0.06 -2.39,-0.64 -2.37,-2.39s0.05,-4.82 0.05,-4.82c0,-3.49 0,-7 0,-10.47a4.5,4.5 0 0 0 -0.06,-0.94c-0.16,-1.09 -0.84,-1.52 -2.37,-1.52c-4.43,0.11 -8.87,0.1 -13.3,0c-1.6,0 -2.22,0.54 -2.32,1.87a4.7,4.7 0 0 0 0,0.54c0,0.55 0,10.8 0,15.38c0,1.74 -0.56,2.43 -2.34,2.4c-4.36,-0.09 -8.72,-0.11 -13.08,0c-2,0.05 -2.58,-0.69 -2.56,-2.63c0,-1.52 0,-11.57 0.07,-15.06a4.27,4.27 0 0 0 -0.09,-1.07c-0.26,-1.03 -0.91,-1.43 -2.39,-1.43c-4.43,0.11 -8.87,0.1 -13.29,0c-1.81,0 -2.36,0.7 -2.34,2.41l0,0.14l0,0c0,5.07 0,10.13 0.06,15.2c0,1.9 -0.73,2.47 -2.54,2.44c-4.2,-0.09 -8.41,-0.11 -12.61,0c-2,0.06 -2.55,-0.8 -2.53,-2.67c0,-1.51 0.06,-13.4 0.08,-15a4.58,4.58 0 0 0 0,-0.86c-0.23,-1.21 -0.9,-1.66 -2.47,-1.66c-4.43,0.11 -8.87,0.1 -13.3,0c-1.54,0 -2.17,0.5 -2.31,1.72q0,0.31 0,0.69c0,1.27 0,11.37 0.06,15.15c0,1.9 -0.54,2.71 -2.56,2.63c-3.27,-0.12 -6.56,-0.05 -9.84,0c-10.84,0.1 -18.38,6.81 -19.9,17.47c-0.68,4.76 -0.23,9.55 -0.38,14.34c-0.07,2.91 -0.05,3 -3,3c-4.41,0 -15.94,0 -16.14,0c-1.36,0.07 -1.86,0.73 -1.86,2.38c0.11,4.43 0.1,8.87 0,13.3c0,1.46 0.45,2.1 1.54,2.29c0.26,0 13.83,0 17.1,0c1.74,0 2.43,0.56 2.4,2.35c-0.09,4.36 -0.11,8.73 0,13.08c0.06,2 -0.68,2.58 -2.61,2.56c-4.37,0 -16.52,0 -16.78,0c-1.2,0.19 -1.65,0.87 -1.65,2.44c0.11,4.43 0.1,8.87 0,13.3c0,1.55 0.51,2.17 1.73,2.31c0.27,-0.01 11.27,-0.01 11.27,-0.01l5.61,0c1.91,0 2.48,0.73 2.45,2.54c-0.06,3 -0.09,5.9 -0.06,8.86c0,1.25 0,2.5 0.06,3.76c0.07,2 -0.79,2.55 -2.66,2.52c-5,-0.06 -10.07,0 -15.11,0l-0.77,0a3.41,3.41 0 0 0 -0.46,0c-1.5,0.07 -2.09,0.72 -2.06,2.45c0.11,4.43 0.1,8.87 0,13.3c0,1.44 0.44,2.09 1.48,2.28a5.26,5.26 0 0 0 0.93,0.07c3.52,0 7,0 10.57,0l0,0c1.82,0 3.63,0 5.45,0s2.63,0.61 2.62,2.58a107,107 0 0 0 0.31,13.28a20.42,20.42 0 0 0 19.92,18.1c3.29,0 6.58,0.09 9.86,0c1.86,-0.06 2.54,0.56 2.5,2.46c-0.09,4.93 0,9.86 0,14.8c0,2.59 0.22,2.82 2.8,2.83c4.15,0 8.29,0 12.44,0c2.55,0 2.76,-0.23 2.77,-2.87c0,-4.86 0.07,-9.72 0,-14.58c0,-1.9 0.49,-2.71 2.54,-2.65c4.28,0.13 8.57,0.09 12.86,0c1.67,0 2.29,0.58 2.27,2.25c0,5.08 0,10.16 0,15.23c0,1.95 0.7,2.68 2.64,2.64c4.36,-0.09 8.72,-0.08 13.08,0c1.74,0 2.41,-0.61 2.38,-2.39c-0.09,-5.14 0,-10.29 0,-15.44c0,-1.63 0.48,-2.32 2.2,-2.28c4.5,0.08 9,0.07 13.51,0c1.66,0 2.27,0.56 2.25,2.24c-0.07,5.07 0,10.15 0,15.23c0,2 0.7,2.68 2.62,2.64c4.36,-0.08 8.73,-0.06 13.08,0c1.75,0 2.42,-0.69 2.4,-2.43c-0.06,-5.07 0,-10.15 -0.05,-15.23c0,-1.9 0.66,-2.54 2.51,-2.45c0.61,0 1.22,0.05 1.84,0.06l0,-11.9q-52,0 -104.06,0c-7.12,0 -10.5,-3.33 -10.5,-10.5l0,-57.27q0,-29.07 0,-58.14c0,-6.18 2.62,-8.79 8.69,-8.79c37.31,0 75.11,0 112.42,0c10.72,0 8.85,9.08 8.85,17.51l0,70.64l12,0c0,-3 0,-6.08 0,-9.12c0,-1.66 0.61,-2.29 2.27,-2.27c5.58,0.05 11.15,0 16.73,0c2.91,0 3,0 3,-3c0,-4.22 -0.05,-8.44 0,-12.66c0,-1.76 -0.6,-2.39 -2.37,-2.37"/>
  </clipPath>
  <clipPath transform="translate(2.56 2.57)" id="clip-path-2">
   <path id="svg_2" clip-rule="evenodd" fill="#484848" d="m159.14,230.16965l0,4.1l-16.76,0l0,4.11l8.38,0l0,4.1l-8.38,0l0,4.11l16.76,0l0,4.1l-20.94,0l0,-20.52l20.94,0zm-25.09,0l0,4.1l-16.75,0l0,4.11l16.75,0l0,12.31l-20.94,0l0,-4.1l16.75,0l0,-4.11l-16.75,0l0,-12.31l20.94,0zm-25.08,0l0,20.52l-4.19,0l0,-16.42l-12.57,0l0,16.42l-4.21,0l0,-20.52l20.97,0zm-25.09,0l0,4.1l-16.75,0l0,4.11l8.38,0l0,4.1l-8.38,0l0,4.11l16.75,0l0,4.1l-20.94,0l0,-20.52l20.94,0zm-25.08,0l0,4.1l-16.75,0l0,4.11l16.75,0l0,12.31l-20.94,0l0,-4.1l16.75,0l0,-4.11l-16.75,0l0,-12.31l20.94,0z"/>
  </clipPath>
 </defs>
 <g>
  <title>Layer 1</title>
  <g id="svg_4">
   <path id="svg_5" fill-rule="evenodd" fill="#ef4b59" d="m197.18,93.47c-5.71,0.07 -11.43,0 -17.15,0.06c-1.88,0 -2.52,-0.63 -2.48,-2.49c0.1,-4.29 0.13,-8.58 0,-12.87c-0.07,-2.14 0.79,-2.67 2.77,-2.64c5.57,0.1 11.15,0 16.72,0.07c1.84,0 2.56,-0.57 2.51,-2.47c-0.1,-4.43 -0.09,-8.87 0,-13.3c0,-1.81 -0.7,-2.37 -2.41,-2.35c-5.37,0.07 -10.73,0 -16.09,0c-3.45,0 -3.4,0 -3.47,-3.39c-0.14,-6.23 1,-12.62 -1.19,-18.55c-3.16,-8.64 -11.08,-12.82 -20.27,-12.83c-2.64,0 -5.29,-0.07 -7.93,0c-1.77,0.06 -2.39,-0.64 -2.37,-2.39s0.05,-4.82 0.05,-4.82c0,-3.49 0,-7 0,-10.47a4.5,4.5 0 0 0 -0.06,-0.94c-0.16,-1.09 -0.84,-1.52 -2.37,-1.52c-4.43,0.11 -8.87,0.1 -13.3,0c-1.6,0 -2.22,0.54 -2.32,1.87a4.7,4.7 0 0 0 0,0.54c0,0.55 0,10.8 0,15.38c0,1.74 -0.56,2.43 -2.34,2.4c-4.36,-0.09 -8.72,-0.11 -13.08,0c-2,0.05 -2.58,-0.69 -2.56,-2.63c0,-1.52 0,-11.57 0.07,-15.06a4.27,4.27 0 0 0 -0.09,-1.07c-0.26,-1.03 -0.91,-1.43 -2.39,-1.43c-4.43,0.11 -8.87,0.1 -13.29,0c-1.81,0 -2.36,0.7 -2.34,2.41l0,0.14l0,0c0,5.07 0,10.13 0.06,15.2c0,1.9 -0.73,2.47 -2.54,2.44c-4.2,-0.09 -8.41,-0.11 -12.61,0c-2,0.06 -2.55,-0.8 -2.53,-2.67c0,-1.51 0.06,-13.4 0.08,-15a4.58,4.58 0 0 0 0,-0.86c-0.23,-1.21 -0.9,-1.66 -2.47,-1.66c-4.43,0.11 -8.87,0.1 -13.3,0c-1.54,0 -2.17,0.5 -2.31,1.72q0,0.31 0,0.69c0,1.27 0,11.37 0.06,15.15c0,1.9 -0.54,2.71 -2.56,2.63c-3.27,-0.12 -6.56,-0.05 -9.84,0c-10.84,0.1 -18.38,6.81 -19.9,17.47c-0.68,4.76 -0.23,9.55 -0.38,14.34c-0.07,2.91 -0.05,3 -3,3c-4.41,0 -15.94,0 -16.14,0c-1.36,0.07 -1.86,0.73 -1.86,2.38c0.11,4.43 0.1,8.87 0,13.3c0,1.46 0.45,2.1 1.54,2.29c0.26,0 13.83,0 17.1,0c1.74,0 2.43,0.56 2.4,2.35c-0.09,4.36 -0.11,8.73 0,13.08c0.06,2 -0.68,2.58 -2.61,2.56c-4.37,0 -16.52,0 -16.78,0c-1.2,0.19 -1.65,0.87 -1.65,2.44c0.11,4.43 0.1,8.87 0,13.3c0,1.55 0.51,2.17 1.73,2.31c0.27,-0.01 11.27,-0.01 11.27,-0.01l5.61,0c1.91,0 2.48,0.73 2.45,2.54c-0.06,3 -0.09,5.9 -0.06,8.86c0,1.25 0,2.5 0.06,3.76c0.07,2 -0.79,2.55 -2.66,2.52c-5,-0.06 -10.07,0 -15.11,0l-0.77,0a3.41,3.41 0 0 0 -0.46,0c-1.5,0.07 -2.09,0.72 -2.06,2.45c0.11,4.43 0.1,8.87 0,13.3c0,1.44 0.44,2.09 1.48,2.28a5.26,5.26 0 0 0 0.93,0.07c3.52,0 7,0 10.57,0l0,0c1.82,0 3.63,0 5.45,0s2.63,0.61 2.62,2.58a107,107 0 0 0 0.31,13.28a20.42,20.42 0 0 0 19.92,18.1c3.29,0 6.58,0.09 9.86,0c1.86,-0.06 2.54,0.56 2.5,2.46c-0.09,4.93 0,9.86 0,14.8c0,2.59 0.22,2.82 2.8,2.83c4.15,0 8.29,0 12.44,0c2.55,0 2.76,-0.23 2.77,-2.87c0,-4.86 0.07,-9.72 0,-14.58c0,-1.9 0.49,-2.71 2.54,-2.65c4.28,0.13 8.57,0.09 12.86,0c1.67,0 2.29,0.58 2.27,2.25c0,5.08 0,10.16 0,15.23c0,1.95 0.7,2.68 2.64,2.64c4.36,-0.09 8.72,-0.08 13.08,0c1.74,0 2.41,-0.61 2.38,-2.39c-0.09,-5.14 0,-10.29 0,-15.44c0,-1.63 0.48,-2.32 2.2,-2.28c4.5,0.08 9,0.07 13.51,0c1.66,0 2.27,0.56 2.25,2.24c-0.07,5.07 0,10.15 0,15.23c0,2 0.7,2.68 2.62,2.64c4.36,-0.08 8.73,-0.06 13.08,0c1.75,0 2.42,-0.69 2.4,-2.43c-0.06,-5.07 0,-10.15 -0.05,-15.23c0,-1.9 0.66,-2.54 2.51,-2.45c0.61,0 1.22,0.05 1.84,0.06l0,-11.9q-52,0 -104.06,0c-7.12,0 -10.5,-3.33 -10.5,-10.5l0,-57.27q0,-29.07 0,-58.14c0,-6.18 2.62,-8.79 8.69,-8.79c37.31,0 75.11,0 112.42,0c10.72,0 8.85,9.08 8.85,17.51l0,70.64l12,0c0,-3 0,-6.08 0,-9.12c0,-1.66 0.61,-2.29 2.27,-2.27c5.58,0.05 11.15,0 16.73,0c2.91,0 3,0 3,-3c0,-4.22 -0.05,-8.44 0,-12.66c0,-1.76 -0.6,-2.39 -2.37,-2.37"/>
   <g id="svg_6" clip-path="url(#clip-path)">
    <rect id="svg_7" fill="#ef4b59" height="203.83" width="202.12"/>
   </g>
  </g>
 </g>
</svg>