<svg xmlns="http://www.w3.org/2000/svg" width="202.12" height="202.12" viewBox="0 0 202.12 202.12">
  <style>
    path { fill: #EF4B59; }
    @media (prefers-color-scheme: dark) {
      path { fill: #F05463; }
    }
  </style>
  <g id="Layer_2" data-name="Layer 2">
    <g id="Layer_1-2" data-name="Layer 1">
      <g>
        <g>
          <path d="M194.62,90.9c-5.71.07-11.43,0-17.15.06-1.88,0-2.52-.63-2.48-2.49.1-4.29.13-8.58,0-12.87-.07-2.14.79-2.67,2.77-2.64,5.57.1,11.15,0,16.72.07,1.84,0,2.56-.57,2.51-2.47-.1-4.43-.09-8.87,0-13.3,0-1.81-.7-2.37-2.41-2.35-5.37.07-10.73,0-16.09,0-3.45,0-3.4,0-3.47-3.39-.14-6.23,1-12.62-1.19-18.55-3.16-8.64-11.08-12.82-20.27-12.83-2.64,0-5.29-.07-7.93,0-1.77.06-2.39-.64-2.37-2.39s.05-4.82.05-4.82c0-3.49,0-7,0-10.47a4.5,4.5,0,0,0-.06-.94C143.09.43,142.41,0,140.88,0c-4.43.11-8.87.1-13.3,0-1.6,0-2.22.54-2.32,1.87a4.7,4.7,0,0,0,0,.54c0,.55,0,10.8,0,15.38,0,1.74-.56,2.43-2.34,2.4-4.36-.09-8.72-.11-13.08,0-2,.05-2.58-.69-2.56-2.63,0-1.52,0-11.57.07-15.06a4.27,4.27,0,0,0-.09-1.07C107,.4,106.35,0,104.87,0,100.44.11,96,.1,91.58,0c-1.81,0-2.36.7-2.34,2.41v.14h0c0,5.07,0,10.13.06,15.2,0,1.9-.73,2.47-2.54,2.44-4.2-.09-8.41-.11-12.61,0-2,.06-2.55-.8-2.53-2.67,0-1.51.06-13.4.08-15a4.58,4.58,0,0,0,0-.86C71.47.45,70.8,0,69.23,0c-4.43.11-8.87.1-13.3,0-1.54,0-2.17.5-2.31,1.72q0,.31,0,.69c0,1.27,0,11.37.06,15.15,0,1.9-.54,2.71-2.56,2.63-3.27-.12-6.56-.05-9.84,0C30.44,20.29,22.9,27,21.38,37.66,20.7,42.42,21.15,47.21,21,52c-.07,2.91-.05,3-3,3-4.41,0-15.94,0-16.14,0C.5,55.07,0,55.73,0,57.38c.11,4.43.1,8.87,0,13.3,0,1.46.45,2.1,1.54,2.29.26,0,13.83,0,17.1,0,1.74,0,2.43.56,2.4,2.35-.09,4.36-.11,8.73,0,13.08.06,2-.68,2.58-2.61,2.56-4.37,0-16.52,0-16.78,0C.45,91.15,0,91.83,0,93.4c.11,4.43.1,8.87,0,13.3,0,1.55.51,2.17,1.73,2.31C2,109,13,109,13,109l5.61,0c1.91,0,2.48.73,2.45,2.54-.06,3-.09,5.9-.06,8.86,0,1.25,0,2.5.06,3.76.07,2-.79,2.55-2.66,2.52-5-.06-10.07,0-15.11,0H2.52a3.41,3.41,0,0,0-.46,0c-1.5.07-2.09.72-2.06,2.45.11,4.43.1,8.87,0,13.3,0,1.44.44,2.09,1.48,2.28a5.26,5.26,0,0,0,.93.07c3.52,0,7,0,10.57,0h0c1.82,0,3.63,0,5.45,0s2.63.61,2.62,2.58a107,107,0,0,0,.31,13.28,20.42,20.42,0,0,0,19.92,18.1c3.29,0,6.58.09,9.86,0,1.86-.06,2.54.56,2.5,2.46-.09,4.93,0,9.86,0,14.8,0,2.59.22,2.82,2.8,2.83,4.15,0,8.29,0,12.44,0,2.55,0,2.76-.23,2.77-2.87,0-4.86.07-9.72,0-14.58,0-1.9.49-2.71,2.54-2.65,4.28.13,8.57.09,12.86,0,1.67,0,2.29.58,2.27,2.25,0,5.08,0,10.16,0,15.23,0,1.95.7,2.68,2.64,2.64,4.36-.09,8.72-.08,13.08,0,1.74,0,2.41-.61,2.38-2.39-.09-5.14,0-10.29,0-15.44,0-1.63.48-2.32,2.2-2.28,4.5.08,9,.07,13.51,0,1.66,0,2.27.56,2.25,2.24-.07,5.07,0,10.15,0,15.23,0,2,.7,2.68,2.62,2.64,4.36-.08,8.73-.06,13.08,0,1.75,0,2.42-.69,2.4-2.43-.06-5.07,0-10.15-.05-15.23,0-1.9.66-2.54,2.51-2.45.61,0,1.22.05,1.84.06V166.9q-52,0-104.06,0c-7.12,0-10.5-3.33-10.5-10.5V99.13q0-29.07,0-58.14c0-6.18,2.62-8.79,8.69-8.79,37.31,0,75.11,0,112.42,0,10.72,0,8.85,9.08,8.85,17.51v70.64h12c0-3,0-6.08,0-9.12,0-1.66.61-2.29,2.27-2.27,5.58.05,11.15,0,16.73,0,2.91,0,3,0,3-3,0-4.22-.05-8.44,0-12.66,0-1.76-.6-2.39-2.37-2.37" transform="translate(2.56 2.57)" fill-rule="evenodd"/>
        </g>
      </g>
    </g>
  </g>
</svg>
