<?xml version="1.0" standalone="no"?>
<!DOCTYPE svg PUBLIC "-//W3C//DTD SVG 20010904//EN"
 "http://www.w3.org/TR/2001/REC-SVG-20010904/DTD/svg10.dtd">
<svg version="1.0" xmlns="http://www.w3.org/2000/svg"
 width="820.000000pt" height="820.000000pt" viewBox="0 0 820.000000 820.000000"
 preserveAspectRatio="xMidYMid meet">
<metadata>
Created by potrace 1.14, written by Peter Selinger 2001-2017
</metadata>
<g transform="translate(0.000000,820.000000) scale(0.100000,-0.100000)"
fill="#000000" stroke="none">
<path d="M2354 8172 c-92 -5 -89 10 -89 -397 0 -338 -1 -355 -20 -380 l-20
-27 -280 -3 c-220 -2 -297 -6 -360 -19 -243 -53 -431 -200 -534 -417 -17 -37
-31 -73 -31 -81 0 -8 -3 -18 -7 -22 -4 -3 -8 -12 -10 -19 -1 -7 -7 -30 -12
-52 -12 -52 -24 -131 -25 -172 0 -18 -4 -33 -8 -33 -5 0 -4 -8 1 -19 6 -10 8
-21 5 -23 -5 -5 -6 -168 -1 -271 1 -31 0 -57 -3 -57 -3 0 -5 -41 -5 -91 -1
-80 -3 -92 -20 -102 -14 -8 -132 -12 -390 -12 -268 -1 -376 -5 -392 -13 -13
-7 -24 -25 -28 -45 -3 -17 -4 -166 -2 -329 2 -329 2 -329 67 -332 26 -1 32 -6
37 -27 3 -15 15 -31 28 -37 22 -10 151 -19 159 -11 2 2 93 2 201 -1 108 -3
199 -3 201 -1 5 5 137 1 143 -5 2 -2 3 -25 2 -51 -3 -48 -4 -375 -2 -468 2
-76 1 -79 -27 -99 -25 -19 -45 -20 -392 -20 -320 -1 -369 -3 -391 -17 l-24
-16 -2 -321 c-1 -298 0 -322 17 -342 10 -12 31 -23 47 -24 15 -2 32 -4 36 -5
5 0 5 -5 2 -11 -3 -5 5 -21 19 -35 l25 -25 346 0 345 0 1 -37 c0 -21 1 -59 2
-86 1 -26 0 -47 -3 -47 -6 0 -2 -269 4 -287 3 -7 1 -15 -4 -18 -4 -3 -5 -17
-1 -33 10 -36 -3 -90 -26 -107 -14 -11 -89 -14 -363 -15 -190 -1 -361 -3 -380
-5 -68 -6 -69 -9 -69 -353 0 -169 3 -315 5 -325 6 -21 52 -46 77 -42 11 2 19
-5 23 -21 13 -53 21 -54 391 -54 l343 0 1 -22 c1 -13 0 -27 -1 -33 -7 -38 3
-397 15 -505 24 -219 150 -436 330 -567 17 -12 55 -40 85 -63 68 -51 219 -125
285 -140 28 -7 59 -14 70 -16 34 -8 151 -13 340 -13 l180 -1 0 -345 c0 -381
-2 -371 65 -378 25 -3 36 -10 39 -23 4 -26 30 -53 49 -53 10 1 132 0 272 -1
350 -1 352 -1 375 16 19 14 20 27 22 371 1 361 4 394 39 407 8 3 137 6 287 6
l272 1 5 -345 c5 -330 6 -346 25 -360 11 -9 26 -16 33 -17 6 -1 17 -3 22 -4 6
-1 15 -3 20 -4 6 0 10 -7 10 -13 0 -7 8 -23 18 -36 17 -22 19 -22 282 -22 146
0 288 0 316 0 36 0 59 6 75 19 l24 19 1 354 c0 336 5 405 24 393 5 -3 11 -1
15 5 7 12 575 14 575 3 1 -5 1 -150 1 -323 0 -185 4 -328 10 -348 9 -27 18
-34 54 -43 31 -8 45 -17 49 -32 12 -49 29 -50 612 -47 36 0 59 6 75 19 l24 19
1 359 c1 425 -5 403 106 403 l68 0 -2 238 -3 237 -47 -1 -48 -1 0 39 0 38
-2092 1 c-1997 0 -2155 1 -2204 12 -85 20 -100 29 -126 76 -61 107 -57 -52
-55 2581 2 2294 3 2407 20 2458 24 70 84 131 157 157 54 20 80 20 2410 20
1295 0 2362 -3 2370 -6 8 -3 27 -9 43 -14 15 -4 27 -12 27 -18 0 -6 7 -18 15
-27 8 -9 22 -45 31 -80 16 -60 18 -189 18 -1680 l1 -1615 40 -2 c60 -5 67 -9
62 -42 -4 -21 -1 -30 12 -33 13 -3 383 -2 446 1 20 1 20 7 20 188 -1 205 7
248 47 258 13 3 199 7 413 8 l390 2 3 349 c2 372 3 366 -45 366 -15 0 -28 10
-38 30 -8 16 -23 34 -33 39 -9 5 -174 8 -375 7 -198 0 -361 3 -364 7 -3 5 -4
36 -3 70 1 34 1 68 1 75 -2 27 -2 39 0 103 1 37 -1 70 -3 75 -3 5 -3 17 1 26
3 9 4 53 1 97 -6 101 2 150 29 173 21 16 52 17 405 16 275 0 388 3 404 11 22
12 22 12 22 351 0 325 -1 340 -19 350 -11 5 -29 10 -41 10 -12 0 -24 9 -29 23
-20 52 -17 52 -403 53 -197 1 -361 4 -365 7 -3 4 -5 60 -4 124 8 374 7 412
-14 548 -10 67 -73 235 -87 235 -5 0 -8 5 -8 11 0 18 -62 102 -115 154 -57 57
-225 178 -300 217 -51 27 -163 64 -219 73 -17 3 -44 8 -61 12 -35 7 -158 12
-337 12 l-128 1 0 345 0 345 -32 20 c-18 11 -43 20 -56 20 -13 0 -21 4 -17 9
3 5 -5 21 -18 36 l-22 27 -313 -1 c-196 -1 -320 -5 -332 -11 -11 -6 -23 -22
-26 -37 -4 -14 -8 -180 -9 -367 0 -188 -5 -349 -9 -358 -4 -10 -18 -20 -29
-24 -16 -5 -389 -8 -565 -4 -10 0 -13 67 -11 341 2 328 1 341 -18 361 -11 10
-33 21 -49 23 -15 1 -30 8 -32 15 -2 6 -14 23 -26 36 l-21 26 -313 -1 c-190
-1 -320 -5 -332 -11 -10 -5 -22 -20 -26 -32 -3 -12 -6 -174 -5 -359 1 -353 -2
-382 -42 -395 -25 -8 -541 -9 -553 -1 -5 3 -8 147 -6 324 1 175 0 327 -2 339
-7 28 -38 62 -53 57 -17 -6 -53 15 -53 31 0 19 -27 40 -56 43 -33 5 -507 9
-570 5z"/>
</g>
</svg>
