<svg xmlns="http://www.w3.org/2000/svg" width="350" height="111.79" viewBox="0 0 350 111.79">
  <g id="Layer_2" data-name="Layer 2">
    <g id="Layer_1-2" data-name="Layer 1">
      <g>
        <g>
          <path d="M131.65,35.27V28.22h28.21V21.16H131.65V0h35.26V7.05H138.7v7.06h28.21V35.27Z" fill="#EF4B59"/>
          <path d="M173.9,35.27V0h35.27V7.05H181V28.22h28.21v7.05Z" fill="#EF4B59"/>
          <path d="M216.16,35.27V0h7.05V35.27Z" fill="#EF4B59"/>
          <path d="M230.2,35.27V0h35.27V7.05H237.25v7.06h14.11v7.05H237.25v7.06h28.22v7.05Z" fill="#EF4B59"/>
          <path d="M272.46,35.27V0h35.26V35.27h-7.05V7.05H279.51V35.27Z" fill="#EF4B59"/>
          <path d="M314.71,7.05V0H350V7.05H335.87V35.27h-7.05V7.05Z" fill="#EF4B59"/>
          <path d="M131.59,111.79V54.23h11.52v57.56Z" fill="#EF4B59"/>
          <path d="M154.51,111.79V100.28h46.05V88.76H154.51V54.23h57.56V65.74H166V77.25h46v34.54Z" fill="#EF4B59"/>
          <path d="M223.47,111.79V100.28h46V88.76h-46V54.23H281V65.74H235V77.25H281v34.54Z" fill="#EF4B59"/>
          <path d="M292.44,65.74V54.23H350V65.74H327v46.05H315.46V65.74Z" fill="#EF4B59"/>
        </g>
        <g>
          <rect x="78.36" y="28.1" width="4.91" height="22" fill="#EF4B59"/>
          <rect x="28.22" y="28.1" width="4.91" height="22" fill="#EF4B59"/>
          <polygon points="0 0 0 50.24 11.3 50.24 11.3 11.3 50.02 11.3 50.02 50.18 61.3 50.17 61.3 11.3 100.22 11.3 100.22 50.24 111.52 50.24 111.52 0 0 0" fill="#EF4B59"/>
          <polygon points="100.22 100.49 11.3 100.49 11.3 61.54 0 61.54 0 111.79 111.52 111.79 111.52 61.54 100.22 61.54 100.22 100.49" fill="#EF4B59"/>
          <polygon points="28.22 89.82 43.22 89.82 43.22 70.64 48.22 70.64 48.22 89.82 48.31 89.82 48.31 89.82 58.2 89.82 63.2 89.82 63.31 89.82 63.31 70.64 68.2 70.64 68.2 89.82 68.31 89.82 73.31 89.82 83.19 89.82 83.19 89.82 83.27 89.82 83.27 65.85 83.19 65.85 78.34 65.85 78.34 85.03 73.31 85.03 73.31 65.85 73.2 65.85 58.31 65.85 58.2 65.85 58.2 85.03 53.31 85.03 53.31 65.85 53.22 65.85 48.31 65.85 38.22 65.85 38.22 85.03 33.17 85.03 33.17 65.85 28.22 65.85 28.22 89.82" fill="#EF4B59"/>
        </g>
      </g>
    </g>
  </g>
</svg>
