<?xml version="1.0" encoding="UTF-8" standalone="no"?>
<!-- Svg Vector Icons : http://www.onlinewebfonts.com/icon -->

<svg version="1.1" x="0px" y="0px" viewBox="0 0 1000 1000" enable-background="new 0 0 1000 1000" xml:space="preserve" id="svg18" sodipodi:docname="resize.svg" inkscape:version="1.2 (dc2aedaf03, 2022-05-15)" xmlns:inkscape="http://www.inkscape.org/namespaces/inkscape" xmlns:sodipodi="http://sodipodi.sourceforge.net/DTD/sodipodi-0.dtd" xmlns="http://www.w3.org/2000/svg" xmlns:svg="http://www.w3.org/2000/svg">
    <defs id="defs22" />
    <sodipodi:namedview id="namedview20" pagecolor="#ffffff" bordercolor="#666666" borderopacity="1.0" inkscape:showpageshadow="2" inkscape:pageopacity="0.0" inkscape:pagecheckerboard="0" inkscape:deskcolor="#d1d1d1" showgrid="false" inkscape:zoom="0.866" inkscape:cx="305.42725" inkscape:cy="500" inkscape:window-width="1920" inkscape:window-height="1011" inkscape:window-x="1920" inkscape:window-y="32" inkscape:window-maximized="1" inkscape:current-layer="g16" />
    <metadata id="metadata2"> Svg Vector Icons : http://www.onlinewebfonts.com/icon </metadata>
    <g id="g16">
        <path d="M779.1,497.8c0,58.2,47.2,105.5,105.5,105.5c58.3,0,105.5-47.2,105.5-105.5c0-58.3-47.2-105.5-105.5-105.5C826.3,392.3,779.1,439.6,779.1,497.8z" id="path4" style="fill:#dedede;fill-opacity:1" />
        <path d="M779.1,840.6c0,58.3,47.2,105.5,105.5,105.5c58.3,0,105.5-47.2,105.5-105.5l0,0c0-58.2-47.2-105.5-105.5-105.5C826.3,735.1,779.1,782.3,779.1,840.6z" id="path6" style="fill:#dedede;fill-opacity:1" />
        <path d="M401.1,840.6c0,58.3,47.2,105.5,105.5,105.5c58.2,0,105.5-47.2,105.5-105.5c0-58.2-47.2-105.5-105.5-105.5C448.3,735.1,401.1,782.3,401.1,840.6L401.1,840.6z" id="path8" style="fill:#dedede;fill-opacity:1" />
        <path d="M401.1,497.8c0,58.2,47.2,105.5,105.5,105.5c58.2,0,105.5-47.2,105.5-105.5c0-58.3-47.2-105.5-105.5-105.5C448.3,392.3,401.1,439.6,401.1,497.8L401.1,497.8z" id="path10" style="fill:#dedede;fill-opacity:1" />
        <path d="M779.1,159.4c0,58.2,47.2,105.5,105.5,105.5c58.3,0,105.5-47.2,105.5-105.5c0-58.3-47.2-105.5-105.5-105.5C826.3,53.9,779.1,101.2,779.1,159.4z" id="path12" style="fill:#dedede;fill-opacity:1" />
        <path d="M10,840.6c0,58.3,47.2,105.5,105.5,105.5c58.3,0,105.5-47.2,105.5-105.5c0-58.2-47.2-105.5-105.5-105.5C57.2,735.1,10,782.3,10,840.6L10,840.6z" id="path14" style="fill:#dedede;fill-opacity:1" />
    </g>
</svg>