<svg preserveAspectRatio="xMidYMid meet" viewBox="0 0 87.762 33.938" height="2.298125rem" xmlns="http://www.w3.org/2000/svg" fill="currentColor" aria-label="Técnico">
    <g>
        <g>
            <path d="M37.199 4.834h-2.8V3.189h7.494v1.645h-2.8v8.226h-1.9Z"></path>
            <path d="M43.173 3.19h6.14v1.645h-4.244v2.387h3.913v1.645h-3.913v2.549h4.24v1.645h-6.14Zm2.091-1.645a23.309 23.309 0 0 0 2-1.319l.707 1.1a14.316 14.316 0 0 1-2.047 1.23Z"></path>
            <path d="M50.818 5.902c0-1.808 1.068-2.861 3.567-2.861a11.5 11.5 0 0 1 2.724.326l-.21 1.616a14.97 14.97 0 0 0-2.453-.252c-1.309 0-1.731.445-1.731 1.5v3.795c0 1.052.422 1.5 1.731 1.5a15.036 15.036 0 0 0 2.453-.252l.21 1.615a11.514 11.514 0 0 1-2.724.326c-2.5 0-3.567-1.053-3.567-2.861Z"></path>
            <path d="M60.539 5.58v7.485h-1.851V3.194h2.528l3.807 7.5v-7.5h1.851v9.871h-2.523Z"></path>
            <path d="M70.877 13.06h-1.9V3.189h1.9Z"></path>
            <path d="M72.755 5.902c0-1.808 1.068-2.861 3.567-2.861a11.5 11.5 0 0 1 2.723.326l-.211 1.616a14.958 14.958 0 0 0-2.453-.252c-1.309 0-1.731.445-1.731 1.5v3.795c0 1.052.422 1.5 1.731 1.5a15.023 15.023 0 0 0 2.453-.252l.211 1.615a11.511 11.511 0 0 1-2.723.326c-2.5 0-3.567-1.053-3.567-2.861Z"></path>
            <path d="M87.762 10.17c0 1.645-.963 3.039-3.792 3.039s-3.792-1.394-3.792-3.039V6.079c0-1.645.963-3.039 3.792-3.039s3.792 1.394 3.792 3.039Zm-5.689-.1c0 .934.482 1.5 1.9 1.5s1.9-.563 1.9-1.5V6.186c0-.934-.482-1.5-1.9-1.5s-1.9.563-1.9 1.5Z"></path>
            <path d="M38.045 24.737h4.515v.785h-5.4v-9.871h.887Z"></path>
            <path d="M45.463 25.522h-.888v-9.871h.888Z"></path>
            <path d="M50.76 25.67a8.536 8.536 0 0 1-2.829-.474l.166-.712a9.58 9.58 0 0 0 2.694.4c1.715 0 2.182-.5 2.182-1.763 0-1.527-.015-1.69-2.242-2.193-2.423-.548-2.694-.978-2.694-2.964 0-1.616.6-2.46 3.115-2.46a10.506 10.506 0 0 1 2.588.34l-.106.741a12.2 12.2 0 0 0-2.453-.3c-1.987 0-2.257.474-2.257 1.7 0 1.6.045 1.675 2.152 2.193 2.634.652 2.784 1.023 2.784 2.891 0 1.623-.556 2.601-3.1 2.601Z"></path>
            <path d="M56.257 25.522v-9.871h3.762c1.355 0 2.152.637 2.152 1.942v1.186a1.541 1.541 0 0 1-1.144 1.6 1.713 1.713 0 0 1 1.459 1.838v1.29c0 1.364-1.008 2.016-2.3 2.016Zm5.026-8.048c0-.682-.391-1.052-1.249-1.052h-2.889v3.661h2.588c1.1 0 1.55-.563 1.55-1.349Zm.316 4.773c0-.83-.5-1.393-1.655-1.393h-2.8v3.9h3.055c.948 0 1.4-.459 1.4-1.245Z"></path>
            <path d="M67.855 25.67c-2.573 0-3.506-1.246-3.506-2.935v-4.3c0-1.69.933-2.935 3.506-2.935s3.506 1.245 3.506 2.935v4.3c.001 1.69-.932 2.935-3.506 2.935Zm2.618-2.965v-4.239c0-1.408-.692-2.179-2.618-2.179s-2.619.771-2.619 2.179v4.239c0 1.408.692 2.179 2.619 2.179s2.619-.769 2.619-2.178Z"></path>
            <path d="M79.247 22.928h-4.665l-.933 2.594h-.873l3.492-9.871h1.309l3.491 9.871h-.872Zm-4.394-.756h4.124l-2.065-6.021Z"></path>
        </g>
        <path fill-rule="evenodd" d="M0 0v14.246c0 12.825 14 19.695 14 19.695s14.056-6.869 14.056-19.695V0Zm7.687 8.955h2.521v10.539H7.681Zm7.584-2.8v16.143c0 2.092-1.7 3.176-3.786 3.176s-3.8-.914-3.8-2.691a1.263 1.263 0 0 1 2.525 0c0 1.291.1 2.166 1.273 2.166 1.259 0 1.259-.879 1.259-2.65V6.158c0-2.092 1.695-3.176 3.786-3.176s3.8.913 3.8 2.691a1.262 1.262 0 1 1-2.524 0c0-1.289-.1-2.165-1.273-2.165-1.26 0-1.26.878-1.26 2.65Zm6.228 4.557h-1.168v8.784h-2.528v-8.78h-1.165V8.955h4.863Z"></path>
    </g>
</svg>