<svg xmlns="http://www.w3.org/2000/svg" width="1282" height="212" viewBox="0 0 1282 212">
  <defs>
    <style>
      .cls-1 {
        fill: #f2f2f7;
        opacity: 0.5;
      }

      .cls-2 {
        fill: none;
        stroke: #d1d1d6;
        stroke-width: 0.5px;
      }
    </style>
  </defs>
  <g id="Group_30" data-name="Group 30" transform="translate(-3409 -576)">
    <rect id="Rectangle_1" data-name="Rectangle 1" class="cls-1" width="1282" height="212" transform="translate(3409 576)"/>
    <g id="Group_1" data-name="Group 1" transform="translate(3414.25 575.5)">
      <line id="Line_1" data-name="Line 1" class="cls-2" y2="212" transform="translate(0.25 0.5)"/>
      <line id="Line_1-2" data-name="Line 1" class="cls-2" y2="212" transform="translate(6.25 0.5)"/>
      <line id="Line_1-3" data-name="Line 1" class="cls-2" y2="212" transform="translate(12.25 0.5)"/>
      <line id="Line_1-4" data-name="Line 1" class="cls-2" y2="212" transform="translate(18.25 0.5)"/>
      <line id="Line_1-5" data-name="Line 1" class="cls-2" y2="212" transform="translate(24.25 0.5)"/>
      <line id="Line_1-6" data-name="Line 1" class="cls-2" y2="212" transform="translate(30.25 0.5)"/>
      <line id="Line_1-7" data-name="Line 1" class="cls-2" y2="212" transform="translate(36.25 0.5)"/>
      <line id="Line_1-8" data-name="Line 1" class="cls-2" y2="212" transform="translate(42.25 0.5)"/>
      <line id="Line_1-9" data-name="Line 1" class="cls-2" y2="212" transform="translate(48.25 0.5)"/>
      <line id="Line_1-10" data-name="Line 1" class="cls-2" y2="212" transform="translate(54.25 0.5)"/>
      <line id="Line_1-11" data-name="Line 1" class="cls-2" y2="212" transform="translate(60.25 0.5)"/>
      <line id="Line_1-12" data-name="Line 1" class="cls-2" y2="212" transform="translate(66.25 0.5)"/>
      <line id="Line_1-13" data-name="Line 1" class="cls-2" y2="212" transform="translate(72.25 0.5)"/>
      <line id="Line_1-14" data-name="Line 1" class="cls-2" y2="212" transform="translate(78.25 0.5)"/>
      <line id="Line_1-15" data-name="Line 1" class="cls-2" y2="212" transform="translate(84.25 0.5)"/>
      <line id="Line_1-16" data-name="Line 1" class="cls-2" y2="212" transform="translate(90.25 0.5)"/>
      <line id="Line_1-17" data-name="Line 1" class="cls-2" y2="212" transform="translate(96.25 0.5)"/>
      <line id="Line_1-18" data-name="Line 1" class="cls-2" y2="212" transform="translate(102.25 0.5)"/>
      <line id="Line_1-19" data-name="Line 1" class="cls-2" y2="212" transform="translate(108.25 0.5)"/>
      <line id="Line_1-20" data-name="Line 1" class="cls-2" y2="212" transform="translate(114.25 0.5)"/>
      <line id="Line_1-21" data-name="Line 1" class="cls-2" y2="212" transform="translate(120.25 0.5)"/>
      <line id="Line_1-22" data-name="Line 1" class="cls-2" y2="212" transform="translate(126.25 0.5)"/>
      <line id="Line_1-23" data-name="Line 1" class="cls-2" y2="212" transform="translate(132.25 0.5)"/>
      <line id="Line_1-24" data-name="Line 1" class="cls-2" y2="212" transform="translate(138.25 0.5)"/>
      <line id="Line_1-25" data-name="Line 1" class="cls-2" y2="212" transform="translate(144.25 0.5)"/>
      <line id="Line_1-26" data-name="Line 1" class="cls-2" y2="212" transform="translate(150.25 0.5)"/>
      <line id="Line_1-27" data-name="Line 1" class="cls-2" y2="212" transform="translate(156.25 0.5)"/>
      <line id="Line_1-28" data-name="Line 1" class="cls-2" y2="212" transform="translate(162.25 0.5)"/>
      <line id="Line_1-29" data-name="Line 1" class="cls-2" y2="212" transform="translate(168.25 0.5)"/>
      <line id="Line_1-30" data-name="Line 1" class="cls-2" y2="212" transform="translate(174.25 0.5)"/>
      <line id="Line_1-31" data-name="Line 1" class="cls-2" y2="212" transform="translate(180.25 0.5)"/>
      <line id="Line_1-32" data-name="Line 1" class="cls-2" y2="212" transform="translate(186.25 0.5)"/>
      <line id="Line_1-33" data-name="Line 1" class="cls-2" y2="212" transform="translate(192.25 0.5)"/>
      <line id="Line_1-34" data-name="Line 1" class="cls-2" y2="212" transform="translate(198.25 0.5)"/>
      <line id="Line_1-35" data-name="Line 1" class="cls-2" y2="212" transform="translate(204.25 0.5)"/>
      <line id="Line_1-36" data-name="Line 1" class="cls-2" y2="212" transform="translate(210.25 0.5)"/>
      <line id="Line_1-37" data-name="Line 1" class="cls-2" y2="212" transform="translate(216.25 0.5)"/>
      <line id="Line_1-38" data-name="Line 1" class="cls-2" y2="212" transform="translate(222.25 0.5)"/>
      <line id="Line_1-39" data-name="Line 1" class="cls-2" y2="212" transform="translate(228.25 0.5)"/>
      <line id="Line_1-40" data-name="Line 1" class="cls-2" y2="212" transform="translate(234.25 0.5)"/>
      <line id="Line_1-41" data-name="Line 1" class="cls-2" y2="212" transform="translate(240.25 0.5)"/>
      <line id="Line_1-42" data-name="Line 1" class="cls-2" y2="212" transform="translate(246.25 0.5)"/>
      <line id="Line_1-43" data-name="Line 1" class="cls-2" y2="212" transform="translate(253.25 0.5)"/>
      <line id="Line_1-44" data-name="Line 1" class="cls-2" y2="212" transform="translate(259.25 0.5)"/>
      <line id="Line_1-45" data-name="Line 1" class="cls-2" y2="212" transform="translate(265.25 0.5)"/>
      <line id="Line_1-46" data-name="Line 1" class="cls-2" y2="212" transform="translate(271.25 0.5)"/>
      <line id="Line_1-47" data-name="Line 1" class="cls-2" y2="212" transform="translate(277.25 0.5)"/>
      <line id="Line_1-48" data-name="Line 1" class="cls-2" y2="212" transform="translate(283.25 0.5)"/>
      <line id="Line_1-49" data-name="Line 1" class="cls-2" y2="212" transform="translate(289.25 0.5)"/>
      <line id="Line_1-50" data-name="Line 1" class="cls-2" y2="212" transform="translate(295.25 0.5)"/>
      <line id="Line_1-51" data-name="Line 1" class="cls-2" y2="212" transform="translate(301.25 0.5)"/>
      <line id="Line_1-52" data-name="Line 1" class="cls-2" y2="212" transform="translate(306.25 0.5)"/>
      <line id="Line_1-53" data-name="Line 1" class="cls-2" y2="212" transform="translate(312.25 0.5)"/>
      <line id="Line_1-54" data-name="Line 1" class="cls-2" y2="212" transform="translate(319.25 0.5)"/>
      <line id="Line_1-55" data-name="Line 1" class="cls-2" y2="212" transform="translate(325.25 0.5)"/>
      <line id="Line_1-56" data-name="Line 1" class="cls-2" y2="212" transform="translate(331.25 0.5)"/>
      <line id="Line_1-57" data-name="Line 1" class="cls-2" y2="212" transform="translate(337.25 0.5)"/>
      <line id="Line_1-58" data-name="Line 1" class="cls-2" y2="212" transform="translate(343.25 0.5)"/>
      <line id="Line_1-59" data-name="Line 1" class="cls-2" y2="212" transform="translate(349.25 0.5)"/>
      <line id="Line_1-60" data-name="Line 1" class="cls-2" y2="212" transform="translate(355.25 0.5)"/>
      <line id="Line_1-61" data-name="Line 1" class="cls-2" y2="212" transform="translate(361.25 0.5)"/>
      <line id="Line_1-62" data-name="Line 1" class="cls-2" y2="212" transform="translate(367.25 0.5)"/>
      <line id="Line_1-63" data-name="Line 1" class="cls-2" y2="212" transform="translate(373.25 0.5)"/>
      <line id="Line_1-64" data-name="Line 1" class="cls-2" y2="212" transform="translate(379.25 0.5)"/>
      <line id="Line_1-65" data-name="Line 1" class="cls-2" y2="212" transform="translate(385.25 0.5)"/>
      <line id="Line_1-66" data-name="Line 1" class="cls-2" y2="212" transform="translate(391.25 0.5)"/>
      <line id="Line_1-67" data-name="Line 1" class="cls-2" y2="212" transform="translate(397.25 0.5)"/>
      <line id="Line_1-68" data-name="Line 1" class="cls-2" y2="212" transform="translate(403.25 0.5)"/>
      <line id="Line_1-69" data-name="Line 1" class="cls-2" y2="212" transform="translate(409.25 0.5)"/>
      <line id="Line_1-70" data-name="Line 1" class="cls-2" y2="212" transform="translate(415.25 0.5)"/>
      <line id="Line_1-71" data-name="Line 1" class="cls-2" y2="212" transform="translate(421.25 0.5)"/>
      <line id="Line_1-72" data-name="Line 1" class="cls-2" y2="212" transform="translate(427.25 0.5)"/>
      <line id="Line_1-73" data-name="Line 1" class="cls-2" y2="212" transform="translate(433.25 0.5)"/>
      <line id="Line_1-74" data-name="Line 1" class="cls-2" y2="212" transform="translate(439.25 0.5)"/>
      <line id="Line_1-75" data-name="Line 1" class="cls-2" y2="212" transform="translate(445.25 0.5)"/>
      <line id="Line_1-76" data-name="Line 1" class="cls-2" y2="212" transform="translate(451.25 0.5)"/>
      <line id="Line_1-77" data-name="Line 1" class="cls-2" y2="212" transform="translate(457.25 0.5)"/>
      <line id="Line_1-78" data-name="Line 1" class="cls-2" y2="212" transform="translate(463.25 0.5)"/>
      <line id="Line_1-79" data-name="Line 1" class="cls-2" y2="212" transform="translate(470.25 0.5)"/>
      <line id="Line_1-80" data-name="Line 1" class="cls-2" y2="212" transform="translate(476.25 0.5)"/>
      <line id="Line_1-81" data-name="Line 1" class="cls-2" y2="212" transform="translate(482.25 0.5)"/>
      <line id="Line_1-82" data-name="Line 1" class="cls-2" y2="212" transform="translate(488.25 0.5)"/>
      <line id="Line_1-83" data-name="Line 1" class="cls-2" y2="212" transform="translate(494.25 0.5)"/>
      <line id="Line_1-84" data-name="Line 1" class="cls-2" y2="212" transform="translate(500.25 0.5)"/>
      <line id="Line_1-85" data-name="Line 1" class="cls-2" y2="212" transform="translate(506.25 0.5)"/>
      <line id="Line_1-86" data-name="Line 1" class="cls-2" y2="212" transform="translate(512.25 0.5)"/>
      <line id="Line_1-87" data-name="Line 1" class="cls-2" y2="212" transform="translate(518.25 0.5)"/>
      <line id="Line_1-88" data-name="Line 1" class="cls-2" y2="212" transform="translate(524.25 0.5)"/>
      <line id="Line_1-89" data-name="Line 1" class="cls-2" y2="212" transform="translate(530.25 0.5)"/>
      <line id="Line_1-90" data-name="Line 1" class="cls-2" y2="212" transform="translate(536.25 0.5)"/>
      <line id="Line_1-91" data-name="Line 1" class="cls-2" y2="212" transform="translate(542.25 0.5)"/>
      <line id="Line_1-92" data-name="Line 1" class="cls-2" y2="212" transform="translate(548.25 0.5)"/>
      <line id="Line_1-93" data-name="Line 1" class="cls-2" y2="212" transform="translate(554.25 0.5)"/>
      <line id="Line_1-94" data-name="Line 1" class="cls-2" y2="212" transform="translate(560.25 0.5)"/>
      <line id="Line_1-95" data-name="Line 1" class="cls-2" y2="212" transform="translate(566.25 0.5)"/>
      <line id="Line_1-96" data-name="Line 1" class="cls-2" y2="212" transform="translate(572.25 0.5)"/>
      <line id="Line_1-97" data-name="Line 1" class="cls-2" y2="212" transform="translate(578.25 0.5)"/>
      <line id="Line_1-98" data-name="Line 1" class="cls-2" y2="212" transform="translate(584.25 0.5)"/>
      <line id="Line_1-99" data-name="Line 1" class="cls-2" y2="212" transform="translate(590.25 0.5)"/>
      <line id="Line_1-100" data-name="Line 1" class="cls-2" y2="212" transform="translate(596.25 0.5)"/>
      <line id="Line_1-101" data-name="Line 1" class="cls-2" y2="212" transform="translate(602.25 0.5)"/>
      <line id="Line_1-102" data-name="Line 1" class="cls-2" y2="212" transform="translate(608.25 0.5)"/>
      <line id="Line_1-103" data-name="Line 1" class="cls-2" y2="212" transform="translate(614.25 0.5)"/>
      <line id="Line_1-104" data-name="Line 1" class="cls-2" y2="212" transform="translate(620.25 0.5)"/>
      <line id="Line_1-105" data-name="Line 1" class="cls-2" y2="212" transform="translate(626.25 0.5)"/>
      <line id="Line_1-106" data-name="Line 1" class="cls-2" y2="212" transform="translate(632.25 0.5)"/>
      <line id="Line_1-107" data-name="Line 1" class="cls-2" y2="212" transform="translate(638.25 0.5)"/>
      <line id="Line_1-108" data-name="Line 1" class="cls-2" y2="212" transform="translate(644.25 0.5)"/>
      <line id="Line_1-109" data-name="Line 1" class="cls-2" y2="212" transform="translate(650.25 0.5)"/>
      <line id="Line_1-110" data-name="Line 1" class="cls-2" y2="212" transform="translate(656.25 0.5)"/>
      <line id="Line_1-111" data-name="Line 1" class="cls-2" y2="212" transform="translate(662.25 0.5)"/>
      <line id="Line_1-112" data-name="Line 1" class="cls-2" y2="212" transform="translate(668.25 0.5)"/>
      <line id="Line_1-113" data-name="Line 1" class="cls-2" y2="212" transform="translate(674.25 0.5)"/>
      <line id="Line_1-114" data-name="Line 1" class="cls-2" y2="212" transform="translate(680.25 0.5)"/>
      <line id="Line_1-115" data-name="Line 1" class="cls-2" y2="212" transform="translate(686.25 0.5)"/>
      <line id="Line_1-116" data-name="Line 1" class="cls-2" y2="212" transform="translate(692.25 0.5)"/>
      <line id="Line_1-117" data-name="Line 1" class="cls-2" y2="212" transform="translate(698.25 0.5)"/>
      <line id="Line_1-118" data-name="Line 1" class="cls-2" y2="212" transform="translate(704.25 0.5)"/>
      <line id="Line_1-119" data-name="Line 1" class="cls-2" y2="212" transform="translate(710.25 0.5)"/>
      <line id="Line_1-120" data-name="Line 1" class="cls-2" y2="212" transform="translate(716.25 0.5)"/>
      <line id="Line_1-121" data-name="Line 1" class="cls-2" y2="212" transform="translate(722.25 0.5)"/>
      <line id="Line_1-122" data-name="Line 1" class="cls-2" y2="212" transform="translate(728.25 0.5)"/>
      <line id="Line_1-123" data-name="Line 1" class="cls-2" y2="212" transform="translate(734.25 0.5)"/>
      <line id="Line_1-124" data-name="Line 1" class="cls-2" y2="212" transform="translate(741.25 0.5)"/>
      <line id="Line_1-125" data-name="Line 1" class="cls-2" y2="212" transform="translate(747.25 0.5)"/>
      <line id="Line_1-126" data-name="Line 1" class="cls-2" y2="212" transform="translate(753.25 0.5)"/>
      <line id="Line_1-127" data-name="Line 1" class="cls-2" y2="212" transform="translate(759.25 0.5)"/>
      <line id="Line_1-128" data-name="Line 1" class="cls-2" y2="212" transform="translate(765.25 0.5)"/>
      <line id="Line_1-129" data-name="Line 1" class="cls-2" y2="212" transform="translate(771.25 0.5)"/>
      <line id="Line_1-130" data-name="Line 1" class="cls-2" y2="212" transform="translate(777.25 0.5)"/>
      <line id="Line_1-131" data-name="Line 1" class="cls-2" y2="212" transform="translate(783.25 0.5)"/>
      <line id="Line_1-132" data-name="Line 1" class="cls-2" y2="212" transform="translate(789.25 0.5)"/>
      <line id="Line_1-133" data-name="Line 1" class="cls-2" y2="212" transform="translate(795.25 0.5)"/>
      <line id="Line_1-134" data-name="Line 1" class="cls-2" y2="212" transform="translate(801.25 0.5)"/>
      <line id="Line_1-135" data-name="Line 1" class="cls-2" y2="212" transform="translate(807.25 0.5)"/>
      <line id="Line_1-136" data-name="Line 1" class="cls-2" y2="212" transform="translate(813.25 0.5)"/>
      <line id="Line_1-137" data-name="Line 1" class="cls-2" y2="212" transform="translate(819.25 0.5)"/>
      <line id="Line_1-138" data-name="Line 1" class="cls-2" y2="212" transform="translate(825.25 0.5)"/>
      <line id="Line_1-139" data-name="Line 1" class="cls-2" y2="212" transform="translate(831.25 0.5)"/>
      <line id="Line_1-140" data-name="Line 1" class="cls-2" y2="212" transform="translate(837.25 0.5)"/>
      <line id="Line_1-141" data-name="Line 1" class="cls-2" y2="212" transform="translate(843.25 0.5)"/>
      <line id="Line_1-142" data-name="Line 1" class="cls-2" y2="212" transform="translate(849.25 0.5)"/>
      <line id="Line_1-143" data-name="Line 1" class="cls-2" y2="212" transform="translate(855.25 0.5)"/>
      <line id="Line_1-144" data-name="Line 1" class="cls-2" y2="212" transform="translate(861.25 0.5)"/>
      <line id="Line_1-145" data-name="Line 1" class="cls-2" y2="212" transform="translate(867.25 0.5)"/>
      <line id="Line_1-146" data-name="Line 1" class="cls-2" y2="212" transform="translate(873.25 0.5)"/>
      <line id="Line_1-147" data-name="Line 1" class="cls-2" y2="212" transform="translate(879.25 0.5)"/>
      <line id="Line_1-148" data-name="Line 1" class="cls-2" y2="212" transform="translate(885.25 0.5)"/>
      <line id="Line_1-149" data-name="Line 1" class="cls-2" y2="212" transform="translate(891.25 0.5)"/>
      <line id="Line_1-150" data-name="Line 1" class="cls-2" y2="212" transform="translate(897.25 0.5)"/>
      <line id="Line_1-151" data-name="Line 1" class="cls-2" y2="212" transform="translate(903.25 0.5)"/>
      <line id="Line_1-152" data-name="Line 1" class="cls-2" y2="212" transform="translate(909.25 0.5)"/>
      <line id="Line_1-153" data-name="Line 1" class="cls-2" y2="212" transform="translate(915.25 0.5)"/>
      <line id="Line_1-154" data-name="Line 1" class="cls-2" y2="212" transform="translate(921.25 0.5)"/>
      <line id="Line_1-155" data-name="Line 1" class="cls-2" y2="212" transform="translate(927.25 0.5)"/>
      <line id="Line_1-156" data-name="Line 1" class="cls-2" y2="212" transform="translate(933.25 0.5)"/>
      <line id="Line_1-157" data-name="Line 1" class="cls-2" y2="212" transform="translate(939.25 0.5)"/>
      <line id="Line_1-158" data-name="Line 1" class="cls-2" y2="212" transform="translate(945.25 0.5)"/>
      <line id="Line_1-159" data-name="Line 1" class="cls-2" y2="212" transform="translate(951.25 0.5)"/>
      <line id="Line_1-160" data-name="Line 1" class="cls-2" y2="212" transform="translate(957.25 0.5)"/>
      <line id="Line_1-161" data-name="Line 1" class="cls-2" y2="212" transform="translate(963.25 0.5)"/>
      <line id="Line_1-162" data-name="Line 1" class="cls-2" y2="212" transform="translate(969.25 0.5)"/>
      <line id="Line_1-163" data-name="Line 1" class="cls-2" y2="212" transform="translate(975.25 0.5)"/>
      <line id="Line_1-164" data-name="Line 1" class="cls-2" y2="212" transform="translate(981.25 0.5)"/>
      <line id="Line_1-165" data-name="Line 1" class="cls-2" y2="212" transform="translate(987.25 0.5)"/>
      <line id="Line_1-166" data-name="Line 1" class="cls-2" y2="212" transform="translate(993.25 0.5)"/>
      <line id="Line_1-167" data-name="Line 1" class="cls-2" y2="212" transform="translate(999.25 0.5)"/>
      <line id="Line_1-168" data-name="Line 1" class="cls-2" y2="212" transform="translate(1005.25 0.5)"/>
      <line id="Line_1-169" data-name="Line 1" class="cls-2" y2="212" transform="translate(1012.25 0.5)"/>
      <line id="Line_1-170" data-name="Line 1" class="cls-2" y2="212" transform="translate(1017.25 0.5)"/>
      <line id="Line_1-171" data-name="Line 1" class="cls-2" y2="212" transform="translate(1025.25 0.5)"/>
      <line id="Line_1-172" data-name="Line 1" class="cls-2" y2="212" transform="translate(1031.25 0.5)"/>
      <line id="Line_1-173" data-name="Line 1" class="cls-2" y2="212" transform="translate(1037.25 0.5)"/>
      <line id="Line_1-174" data-name="Line 1" class="cls-2" y2="212" transform="translate(1043.25 0.5)"/>
      <line id="Line_1-175" data-name="Line 1" class="cls-2" y2="212" transform="translate(1049.25 0.5)"/>
      <line id="Line_1-176" data-name="Line 1" class="cls-2" y2="212" transform="translate(1055.25 0.5)"/>
      <line id="Line_1-177" data-name="Line 1" class="cls-2" y2="212" transform="translate(1061.25 0.5)"/>
      <line id="Line_1-178" data-name="Line 1" class="cls-2" y2="212" transform="translate(1067.25 0.5)"/>
      <line id="Line_1-179" data-name="Line 1" class="cls-2" y2="212" transform="translate(1073.25 0.5)"/>
      <line id="Line_1-180" data-name="Line 1" class="cls-2" y2="212" transform="translate(1079.25 0.5)"/>
      <line id="Line_1-181" data-name="Line 1" class="cls-2" y2="212" transform="translate(1085.25 0.5)"/>
      <line id="Line_1-182" data-name="Line 1" class="cls-2" y2="212" transform="translate(1091.25 0.5)"/>
      <line id="Line_1-183" data-name="Line 1" class="cls-2" y2="212" transform="translate(1097.25 0.5)"/>
      <line id="Line_1-184" data-name="Line 1" class="cls-2" y2="212" transform="translate(1103.25 0.5)"/>
      <line id="Line_1-185" data-name="Line 1" class="cls-2" y2="212" transform="translate(1109.25 0.5)"/>
      <line id="Line_1-186" data-name="Line 1" class="cls-2" y2="212" transform="translate(1115.25 0.5)"/>
      <line id="Line_1-187" data-name="Line 1" class="cls-2" y2="212" transform="translate(1121.25 0.5)"/>
      <line id="Line_1-188" data-name="Line 1" class="cls-2" y2="212" transform="translate(1127.25 0.5)"/>
      <line id="Line_1-189" data-name="Line 1" class="cls-2" y2="212" transform="translate(1133.25 0.5)"/>
      <line id="Line_1-190" data-name="Line 1" class="cls-2" y2="212" transform="translate(1139.25 0.5)"/>
      <line id="Line_1-191" data-name="Line 1" class="cls-2" y2="212" transform="translate(1145.25 0.5)"/>
      <line id="Line_1-192" data-name="Line 1" class="cls-2" y2="212" transform="translate(1151.25 0.5)"/>
      <line id="Line_1-193" data-name="Line 1" class="cls-2" y2="212" transform="translate(1157.25 0.5)"/>
      <line id="Line_1-194" data-name="Line 1" class="cls-2" y2="212" transform="translate(1163.25 0.5)"/>
      <line id="Line_1-195" data-name="Line 1" class="cls-2" y2="212" transform="translate(1169.25 0.5)"/>
      <line id="Line_1-196" data-name="Line 1" class="cls-2" y2="212" transform="translate(1175.25 0.5)"/>
      <line id="Line_1-197" data-name="Line 1" class="cls-2" y2="212" transform="translate(1181.25 0.5)"/>
      <line id="Line_1-198" data-name="Line 1" class="cls-2" y2="212" transform="translate(1187.25 0.5)"/>
      <line id="Line_1-199" data-name="Line 1" class="cls-2" y2="212" transform="translate(1193.25 0.5)"/>
      <line id="Line_1-200" data-name="Line 1" class="cls-2" y2="212" transform="translate(1199.25 0.5)"/>
      <line id="Line_1-201" data-name="Line 1" class="cls-2" y2="212" transform="translate(1205.25 0.5)"/>
      <line id="Line_1-202" data-name="Line 1" class="cls-2" y2="212" transform="translate(1211.25 0.5)"/>
      <line id="Line_1-203" data-name="Line 1" class="cls-2" y2="212" transform="translate(1217.25 0.5)"/>
      <line id="Line_1-204" data-name="Line 1" class="cls-2" y2="212" transform="translate(1223.25 0.5)"/>
      <line id="Line_1-205" data-name="Line 1" class="cls-2" y2="212" transform="translate(1229.25 0.5)"/>
      <line id="Line_1-206" data-name="Line 1" class="cls-2" y2="212" transform="translate(1235.25 0.5)"/>
      <line id="Line_1-207" data-name="Line 1" class="cls-2" y2="212" transform="translate(1241.25 0.5)"/>
      <line id="Line_1-208" data-name="Line 1" class="cls-2" y2="212" transform="translate(1247.25 0.5)"/>
      <line id="Line_1-209" data-name="Line 1" class="cls-2" y2="212" transform="translate(1253.25 0.5)"/>
      <line id="Line_1-210" data-name="Line 1" class="cls-2" y2="212" transform="translate(1259.25 0.5)"/>
      <line id="Line_1-211" data-name="Line 1" class="cls-2" y2="212" transform="translate(1265.25 0.5)"/>
      <line id="Line_1-212" data-name="Line 1" class="cls-2" y2="212" transform="translate(1271.25 0.5)"/>
    </g>
    <g id="Group_2" data-name="Group 2" transform="translate(3408.75 592)">
      <line id="Line_2" data-name="Line 2" class="cls-2" x2="1282" transform="translate(0.25 0.5)"/>
      <line id="Line_2-2" data-name="Line 2" class="cls-2" x2="1282" transform="translate(0.25 6.5)"/>
      <line id="Line_2-3" data-name="Line 2" class="cls-2" x2="1282" transform="translate(0.25 12.5)"/>
      <line id="Line_2-4" data-name="Line 2" class="cls-2" x2="1282" transform="translate(0.25 18.5)"/>
      <line id="Line_2-5" data-name="Line 2" class="cls-2" x2="1282" transform="translate(0.25 24.5)"/>
      <line id="Line_2-6" data-name="Line 2" class="cls-2" x2="1282" transform="translate(0.25 30.5)"/>
      <line id="Line_2-7" data-name="Line 2" class="cls-2" x2="1282" transform="translate(0.25 36.5)"/>
      <line id="Line_2-8" data-name="Line 2" class="cls-2" x2="1282" transform="translate(0.25 42.5)"/>
      <line id="Line_2-9" data-name="Line 2" class="cls-2" x2="1282" transform="translate(0.25 48.5)"/>
      <line id="Line_2-10" data-name="Line 2" class="cls-2" x2="1282" transform="translate(0.25 54.5)"/>
      <line id="Line_2-11" data-name="Line 2" class="cls-2" x2="1282" transform="translate(0.25 60.5)"/>
      <line id="Line_2-12" data-name="Line 2" class="cls-2" x2="1282" transform="translate(0.25 66.5)"/>
      <line id="Line_2-13" data-name="Line 2" class="cls-2" x2="1282" transform="translate(0.25 72.5)"/>
      <line id="Line_2-14" data-name="Line 2" class="cls-2" x2="1282" transform="translate(0.25 78.5)"/>
      <line id="Line_2-15" data-name="Line 2" class="cls-2" x2="1282" transform="translate(0.25 84.5)"/>
      <line id="Line_2-16" data-name="Line 2" class="cls-2" x2="1282" transform="translate(0.25 90.5)"/>
      <line id="Line_2-17" data-name="Line 2" class="cls-2" x2="1282" transform="translate(0.25 96.5)"/>
      <line id="Line_2-18" data-name="Line 2" class="cls-2" x2="1282" transform="translate(0.25 102.5)"/>
      <line id="Line_2-19" data-name="Line 2" class="cls-2" x2="1282" transform="translate(0.25 108.5)"/>
      <line id="Line_2-20" data-name="Line 2" class="cls-2" x2="1282" transform="translate(0.25 114.5)"/>
      <line id="Line_2-21" data-name="Line 2" class="cls-2" x2="1282" transform="translate(0.25 120.5)"/>
      <line id="Line_2-22" data-name="Line 2" class="cls-2" x2="1282" transform="translate(0.25 126.5)"/>
      <line id="Line_2-23" data-name="Line 2" class="cls-2" x2="1282" transform="translate(0.25 132.5)"/>
      <line id="Line_2-24" data-name="Line 2" class="cls-2" x2="1282" transform="translate(0.25 138.5)"/>
      <line id="Line_2-25" data-name="Line 2" class="cls-2" x2="1282" transform="translate(0.25 144.5)"/>
      <line id="Line_2-26" data-name="Line 2" class="cls-2" x2="1282" transform="translate(0.25 150.5)"/>
      <line id="Line_2-27" data-name="Line 2" class="cls-2" x2="1282" transform="translate(0.25 156.5)"/>
      <line id="Line_2-28" data-name="Line 2" class="cls-2" x2="1282" transform="translate(0.25 162.5)"/>
      <line id="Line_2-29" data-name="Line 2" class="cls-2" x2="1282" transform="translate(0.25 168.5)"/>
      <line id="Line_2-30" data-name="Line 2" class="cls-2" x2="1282" transform="translate(0.25 174.5)"/>
      <line id="Line_2-31" data-name="Line 2" class="cls-2" x2="1282" transform="translate(0.25 180.5)"/>
    </g>
  </g>
</svg>
