<svg xmlns="http://www.w3.org/2000/svg" xmlns:xlink="http://www.w3.org/1999/xlink" width="233.14" height="305.92" viewBox="0 0 233.14 305.92">
  <defs>
    <clipPath id="clip-path" transform="translate(2.96 2.96)">
      <path d="M224.48,104.85c-6.59.08-13.19,0-19.79.06-2.16,0-2.89-.72-2.85-2.86.12-5,.15-9.9,0-14.85-.07-2.47.92-3.08,3.2-3,6.43.11,12.86,0,19.29.07,2.12,0,3-.65,2.9-2.84-.12-5.11-.11-10.23,0-15.35,0-2.08-.81-2.72-2.78-2.7-6.18.07-12.37,0-18.55,0-4,0-3.93,0-4-3.9-.16-7.19,1.14-14.56-1.37-21.4-3.65-10-12.78-14.79-23.38-14.79-3.05,0-6.1-.09-9.15,0-2,.08-2.75-.72-2.73-2.75,0-1.85,0-5.55,0-5.55,0-4,0-8.06.05-12.09a5.8,5.8,0,0,0-.08-1.08C165,.5,164.26,0,162.49,0c-5.1.12-10.22.11-15.33,0-1.85,0-2.57.63-2.69,2.16,0,.19,0,.4,0,.62,0,.64,0,12.46,0,17.74,0,2-.65,2.81-2.71,2.77-5-.1-10-.13-15.07,0-2.31.06-3-.8-3-3,0-1.76,0-13.35.08-17.38a6.37,6.37,0,0,0-.1-1.23C123.45.46,122.66,0,121,0c-5.11.12-10.22.11-15.33,0-2.09,0-2.72.81-2.7,2.78V3h0c0,5.84,0,11.68.07,17.52,0,2.2-.85,2.86-2.93,2.82-4.85-.1-9.7-.13-14.54,0-2.36.07-3-.92-2.92-3.08,0-1.74.06-15.45.09-17.33a5.93,5.93,0,0,0,0-1C82.44.52,81.66,0,79.85,0,74.74.12,69.62.11,64.51,0c-1.78,0-2.5.58-2.66,2a6.41,6.41,0,0,0,0,.79c0,1.47,0,13.11.08,17.47,0,2.2-.64,3.13-3,3-3.78-.14-7.57-.06-11.35,0-12.46.13-21.17,7.82-22.92,20.16-.79,5.5-.26,11-.4,16.53-.09,3.36-.06,3.4-3.51,3.4-5.09,0-18.38,0-18.62,0C.58,63.51,0,64.28,0,66.18c.12,5.11.11,10.23,0,15.34C0,83.21.53,84,1.79,84.16c.29,0,16,0,19.73,0,2,0,2.79.64,2.76,2.71-.1,5-.13,10.06,0,15.09.07,2.3-.79,3-3,2.94-5,0-19.06,0-19.35,0-1.4.2-1.95,1-1.92,2.79.12,5.11.11,10.23,0,15.34,0,1.79.59,2.51,2,2.67.24,0,13,0,13,0q3.24,0,6.48-.06c2.19,0,2.86.85,2.82,2.93-.07,3.41-.11,6.82-.07,10.22,0,1.45,0,2.89.07,4.34.08,2.36-.91,2.94-3.07,2.91-5.81-.07-11.62,0-17.43,0H2.38c-1.73.09-2.42.83-2.38,2.83.12,5.11.11,10.23,0,15.34,0,1.66.5,2.41,1.71,2.63a5.07,5.07,0,0,0,1.07.08c4.07,0,8.13,0,12.19,0h0c2.1,0,4.2,0,6.29-.05,2.25,0,3,.7,3,3,0,5.1-.27,10.21.36,15.32a23.55,23.55,0,0,0,23,20.87c3.79.06,7.58.1,11.37,0,2.14-.07,2.93.64,2.89,2.83-.12,5.69,0,11.38,0,17.07,0,3,.26,3.26,3.23,3.27q7.17,0,14.34,0c2.95,0,3.19-.27,3.2-3.31,0-5.6.08-11.21,0-16.82,0-2.18.56-3.12,2.93-3,4.94.15,9.89.1,14.83,0,1.92,0,2.65.67,2.62,2.6-.07,5.85,0,11.71,0,17.56,0,2.25.8,3.09,3,3,5-.1,10.06-.08,15.09,0,2,0,2.77-.71,2.74-2.76-.1-5.93,0-11.87-.06-17.81,0-1.88.56-2.67,2.54-2.64,5.19.1,10.38.09,15.58,0,1.92,0,2.62.66,2.6,2.59-.08,5.85,0,11.71-.06,17.57,0,2.27.8,3.09,3,3.05,5-.09,10.06-.08,15.08,0,2,0,2.79-.8,2.77-2.81-.07-5.85.05-11.71-.06-17.56,0-2.19.76-2.94,2.89-2.83.71,0,1.41.05,2.13.06V192.5q-60,0-120,0c-8.21,0-12.11-3.83-12.11-12.1V114.34q0-33.53,0-67.06c0-7.13,3-10.14,10-10.14H177.82c12.35,0,10.2,10.47,10.2,20.19v81.48h13.87c0-3.5,0-7,0-10.51,0-1.92.71-2.65,2.62-2.63,6.43.07,12.86,0,19.29,0,3.36,0,3.41-.06,3.41-3.51,0-4.87-.06-9.73,0-14.6,0-2-.69-2.76-2.73-2.73" fill="#ef4b59" clip-rule="evenodd"/>
    </clipPath>
    <clipPath id="clip-path-2" transform="translate(2.96 2.96)">
      <path d="M139.84,291.12v1.78h-7.25v1.77h3.63v1.78h-3.63v1.77h7.25V300h-9.06v-8.88Zm-10.85,0v1.78h-7.25v1.77H129V300h-9.06v-1.78h7.25v-1.77h-7.25v-5.33Zm-10.85,0V300h-1.81v-7.1h-5.44V300h-1.81v-8.88Zm-10.85,0v1.78H100v1.77h3.63v1.78H100v1.77h7.25V300H98.23v-8.88Zm-10.85,0v1.78H89.19v1.77h7.25V300H87.38v-1.78h7.25v-1.77H87.38v-5.33Z" fill="#484848" clip-rule="evenodd"/>
    </clipPath>
    <clipPath id="clip-path-3" transform="translate(2.96 2.96)">
      <path d="M129.72,264.5v3h-5.91v11.83h-3V267.46h-5.92v-3Zm59.35,0v3h-5.92v11.83h-3V267.46h-5.92v-3Zm-17.73,0v3H159.51v3h11.83v8.88H156.55v-3h11.84v-3H156.55V264.5Zm-17.72,0v3H141.79v3h11.83v8.88H138.83v-3h11.83v-3H138.83V264.5Zm-17.72,0v14.79h-3V264.5Zm-23.9,0v14.79h-3V267.46h-8.87v11.83h-3V264.5Zm-17.72,0v3H82.45v3h5.91v3H82.45v3H94.28v3H79.49V264.5Zm-23.61,0v3H58.83v8.87H70.67v3H55.87V264.5Zm-17.73,0v3H41.11v3H52.94v8.88H38.15v-3H50v-3H38.15V264.5Zm23.62,0v14.79h-3V264.5Z" fill="#ef4b59" clip-rule="evenodd"/>
    </clipPath>
  </defs>
  <g id="Layer_2" data-name="Layer 2">
    <g id="Layer_1-2" data-name="Layer 1">
      <g>
        <g>
          <path d="M224.48,104.85c-6.59.08-13.19,0-19.79.06-2.16,0-2.89-.72-2.85-2.86.12-5,.15-9.9,0-14.85-.07-2.47.92-3.08,3.2-3,6.43.11,12.86,0,19.29.07,2.12,0,3-.65,2.9-2.84-.12-5.11-.11-10.23,0-15.35,0-2.08-.81-2.72-2.78-2.7-6.18.07-12.37,0-18.55,0-4,0-3.93,0-4-3.9-.16-7.19,1.14-14.56-1.37-21.4-3.65-10-12.78-14.79-23.38-14.79-3.05,0-6.1-.09-9.15,0-2,.08-2.75-.72-2.73-2.75,0-1.85,0-5.55,0-5.55,0-4,0-8.06.05-12.09a5.8,5.8,0,0,0-.08-1.08C165,.5,164.26,0,162.49,0c-5.1.12-10.22.11-15.33,0-1.85,0-2.57.63-2.69,2.16,0,.19,0,.4,0,.62,0,.64,0,12.46,0,17.74,0,2-.65,2.81-2.71,2.77-5-.1-10-.13-15.07,0-2.31.06-3-.8-3-3,0-1.76,0-13.35.08-17.38a6.37,6.37,0,0,0-.1-1.23C123.45.46,122.66,0,121,0c-5.11.12-10.22.11-15.33,0-2.09,0-2.72.81-2.7,2.78V3h0c0,5.84,0,11.68.07,17.52,0,2.2-.85,2.86-2.93,2.82-4.85-.1-9.7-.13-14.54,0-2.36.07-3-.92-2.92-3.08,0-1.74.06-15.45.09-17.33a5.93,5.93,0,0,0,0-1C82.44.52,81.66,0,79.85,0,74.74.12,69.62.11,64.51,0c-1.78,0-2.5.58-2.66,2a6.41,6.41,0,0,0,0,.79c0,1.47,0,13.11.08,17.47,0,2.2-.64,3.13-3,3-3.78-.14-7.57-.06-11.35,0-12.46.13-21.17,7.82-22.92,20.16-.79,5.5-.26,11-.4,16.53-.09,3.36-.06,3.4-3.51,3.4-5.09,0-18.38,0-18.62,0C.58,63.51,0,64.28,0,66.18c.12,5.11.11,10.23,0,15.34C0,83.21.53,84,1.79,84.16c.29,0,16,0,19.73,0,2,0,2.79.64,2.76,2.71-.1,5-.13,10.06,0,15.09.07,2.3-.79,3-3,2.94-5,0-19.06,0-19.35,0-1.4.2-1.95,1-1.92,2.79.12,5.11.11,10.23,0,15.34,0,1.79.59,2.51,2,2.67.24,0,13,0,13,0q3.24,0,6.48-.06c2.19,0,2.86.85,2.82,2.93-.07,3.41-.11,6.82-.07,10.22,0,1.45,0,2.89.07,4.34.08,2.36-.91,2.94-3.07,2.91-5.81-.07-11.62,0-17.43,0H2.38c-1.73.09-2.42.83-2.38,2.83.12,5.11.11,10.23,0,15.34,0,1.66.5,2.41,1.71,2.63a5.07,5.07,0,0,0,1.07.08c4.07,0,8.13,0,12.19,0h0c2.1,0,4.2,0,6.29-.05,2.25,0,3,.7,3,3,0,5.1-.27,10.21.36,15.32a23.55,23.55,0,0,0,23,20.87c3.79.06,7.58.1,11.37,0,2.14-.07,2.93.64,2.89,2.83-.12,5.69,0,11.38,0,17.07,0,3,.26,3.26,3.23,3.27q7.17,0,14.34,0c2.95,0,3.19-.27,3.2-3.31,0-5.6.08-11.21,0-16.82,0-2.18.56-3.12,2.93-3,4.94.15,9.89.1,14.83,0,1.92,0,2.65.67,2.62,2.6-.07,5.85,0,11.71,0,17.56,0,2.25.8,3.09,3,3,5-.1,10.06-.08,15.09,0,2,0,2.77-.71,2.74-2.76-.1-5.93,0-11.87-.06-17.81,0-1.88.56-2.67,2.54-2.64,5.19.1,10.38.09,15.58,0,1.92,0,2.62.66,2.6,2.59-.08,5.85,0,11.71-.06,17.57,0,2.27.8,3.09,3,3.05,5-.09,10.06-.08,15.08,0,2,0,2.79-.8,2.77-2.81-.07-5.85.05-11.71-.06-17.56,0-2.19.76-2.94,2.89-2.83.71,0,1.41.05,2.13.06V192.5q-60,0-120,0c-8.21,0-12.11-3.83-12.11-12.1V114.34q0-33.53,0-67.06c0-7.13,3-10.14,10-10.14H177.82c12.35,0,10.2,10.47,10.2,20.19v81.48h13.87c0-3.5,0-7,0-10.51,0-1.92.71-2.65,2.62-2.63,6.43.07,12.86,0,19.29,0,3.36,0,3.41-.06,3.41-3.51,0-4.87-.06-9.73,0-14.6,0-2-.69-2.76-2.73-2.73" transform="translate(2.96 2.96)" fill="#ef4b59" fill-rule="evenodd"/>
          <g clip-path="url(#clip-path)">
            <rect width="233.14" height="235.1" fill="#ef4b59"/>
          </g>
        </g>
        <g>
          <path d="M139.84,291.12v1.78h-7.25v1.77h3.63v1.78h-3.63v1.77h7.25V300h-9.06v-8.88Zm-10.85,0v1.78h-7.25v1.77H129V300h-9.06v-1.78h7.25v-1.77h-7.25v-5.33Zm-10.85,0V300h-1.81v-7.1h-5.44V300h-1.81v-8.88Zm-10.85,0v1.78H100v1.77h3.63v1.78H100v1.77h7.25V300H98.23v-8.88Zm-10.85,0v1.78H89.19v1.77h7.25V300H87.38v-1.78h7.25v-1.77H87.38v-5.33Z" transform="translate(2.96 2.96)" fill="#484848" fill-rule="evenodd"/>
          <g clip-path="url(#clip-path-2)">
            <rect x="87.38" y="291.12" width="58.37" height="14.79" fill="#484848"/>
          </g>
        </g>
        <g>
          <path d="M129.72,264.5v3h-5.91v11.83h-3V267.46h-5.92v-3Zm59.35,0v3h-5.92v11.83h-3V267.46h-5.92v-3Zm-17.73,0v3H159.51v3h11.83v8.88H156.55v-3h11.84v-3H156.55V264.5Zm-17.72,0v3H141.79v3h11.83v8.88H138.83v-3h11.83v-3H138.83V264.5Zm-17.72,0v14.79h-3V264.5Zm-23.9,0v14.79h-3V267.46h-8.87v11.83h-3V264.5Zm-17.72,0v3H82.45v3h5.91v3H82.45v3H94.28v3H79.49V264.5Zm-23.61,0v3H58.83v8.87H70.67v3H55.87V264.5Zm-17.73,0v3H41.11v3H52.94v8.88H38.15v-3H50v-3H38.15V264.5Zm23.62,0v14.79h-3V264.5Z" transform="translate(2.96 2.96)" fill="#ef4b59" fill-rule="evenodd"/>
          <g clip-path="url(#clip-path-3)">
            <rect x="38.15" y="264.5" width="156.83" height="20.71" fill="#ef4b59"/>
          </g>
        </g>
      </g>
    </g>
  </g>
</svg>
