<svg xmlns="http://www.w3.org/2000/svg" xmlns:xlink="http://www.w3.org/1999/xlink" width="354.13" height="164.23" viewBox="0 0 354.13 164.23">
  <defs>
    <clipPath id="clip-path" transform="translate(2.07 2.07)">
      <path d="M156.81,73.24c-4.6.06-9.21,0-13.82.05-1.51,0-2-.51-2-2,.08-3.46.1-6.92,0-10.38-.05-1.72.64-2.15,2.24-2.12,4.49.08,9,0,13.47.05,1.48,0,2.06-.46,2-2-.08-3.57-.07-7.14,0-10.72,0-1.45-.56-1.9-1.94-1.88-4.32,0-8.64,0-13,0-2.79,0-2.75,0-2.8-2.72-.12-5,.79-10.17-1-14.95-2.55-7-8.92-10.33-16.33-10.33-2.13,0-4.26-.07-6.39,0-1.43.05-1.93-.51-1.91-1.92s0-3.88,0-3.88c0-2.81,0-5.63,0-8.44a5.58,5.58,0,0,0,0-.76C115.29.35,114.74,0,113.51,0c-3.57.09-7.14.08-10.71,0-1.29,0-1.79.44-1.88,1.5,0,.14,0,.29,0,.44,0,.45,0,8.7,0,12.39,0,1.41-.45,2-1.89,1.94-3.51-.08-7-.09-10.53,0-1.61,0-2.09-.55-2.07-2.11,0-1.23,0-9.33.06-12.14a4.33,4.33,0,0,0-.07-.86C86.24.32,85.69,0,84.5,0c-3.57.09-7.14.08-10.71,0C72.33,0,71.89.57,71.9,2v.12h0c0,4.07,0,8.16,0,12.24,0,1.53-.6,2-2,2-3.39-.08-6.78-.1-10.16,0-1.65,0-2.06-.64-2-2.15,0-1.22,0-10.79.06-12.1a3.73,3.73,0,0,0,0-.69C57.59.37,57,0,55.78,0c-3.57.09-7.14.08-10.71,0-1.25,0-1.75.4-1.87,1.39,0,.16,0,.35,0,.55,0,1,0,9.16,0,12.21,0,1.53-.44,2.18-2.06,2.12-2.64-.1-5.29-.05-7.93,0-8.71.09-14.79,5.46-16,14.08-.55,3.84-.18,7.7-.28,11.54-.05,2.35,0,2.38-2.45,2.38-3.55,0-12.84,0-13,0-1.08.11-1.52.64-1.49,2C.09,49.8.08,53.38,0,57c0,1.18.36,1.69,1.24,1.84.21,0,11.14,0,13.78,0,1.4,0,2,.45,1.93,1.89-.07,3.51-.09,7,0,10.54.05,1.61-.55,2.08-2.11,2.06-3.51,0-13.31,0-13.51,0C.37,73.44,0,74,0,75.25.09,78.82.08,82.4,0,86c0,1.25.41,1.75,1.4,1.86.16,0,9.05,0,9.05,0l4.53,0c1.53,0,2,.6,2,2q-.08,3.57-.05,7.14c0,1,0,2,.05,3,.05,1.65-.63,2-2.14,2-4.06,0-8.12,0-12.18,0h-1c-1.21.06-1.69.58-1.66,2,.09,3.57.08,7.14,0,10.72,0,1.16.35,1.67,1.19,1.83a4.22,4.22,0,0,0,.75.06c2.84,0,5.68,0,8.51,0h0l4.4,0c1.57,0,2.11.48,2.11,2.08a85,85,0,0,0,.25,10.7,16.45,16.45,0,0,0,16.05,14.57c2.65.05,5.3.08,7.95,0,1.49,0,2,.45,2,2-.08,4,0,7.95,0,11.92,0,2.1.18,2.28,2.26,2.29q5,0,10,0c2.06,0,2.23-.19,2.23-2.31,0-3.92.06-7.84,0-11.75,0-1.53.39-2.19,2-2.14,3.46.11,6.91.08,10.37,0,1.34,0,1.85.47,1.83,1.81,0,4.09,0,8.18,0,12.27,0,1.57.55,2.16,2.12,2.13,3.51-.07,7-.06,10.54,0,1.4,0,1.94-.49,1.92-1.92-.07-4.15,0-8.3,0-12.44,0-1.32.39-1.87,1.78-1.85q5.43.1,10.88,0c1.35,0,1.84.46,1.82,1.81-.06,4.09,0,8.18,0,12.28,0,1.58.56,2.15,2.11,2.12,3.51-.06,7-.05,10.54,0,1.41,0,2-.56,1.93-2,0-4.09,0-8.18,0-12.27,0-1.53.53-2.05,2-2,.5,0,1,0,1.49.05v-9.46H35.08c-5.74,0-8.46-2.67-8.46-8.46V79.87q0-23.41,0-46.84c0-5,2.11-7.09,7-7.09h90.59c8.63,0,7.12,7.32,7.12,14.11V97H141c0-2.45,0-4.9,0-7.35,0-1.33.5-1.84,1.83-1.83,4.49,0,9,0,13.48,0,2.34,0,2.38,0,2.38-2.45,0-3.4,0-6.8,0-10.2,0-1.42-.48-1.93-1.91-1.91" fill="#ef4b59" clip-rule="evenodd"/>
    </clipPath>
    <clipPath id="clip-path-2" transform="translate(2.07 2.07)">
      <path d="M286.21,121.38v3.31h-13.5V128h6.75v3.3h-6.75v3.31h13.5v3.31H269.33V121.38Zm-20.22,0v3.31H252.5V128H266v9.92H249.12v-3.31h13.5V131.3h-13.5v-9.92Zm-20.21,0v16.54h-3.37V124.69H232.28v13.23h-3.37V121.38Zm-20.21,0v3.31h-13.5V128h6.75v3.3h-6.75v3.31h13.5v3.31H208.7V121.38Zm-20.21,0v3.31h-13.5V128h13.5v9.92H188.49v-3.31H202V131.3H188.49v-9.92Z" fill="#484848" clip-rule="evenodd"/>
    </clipPath>
    <clipPath id="clip-path-3" transform="translate(2.07 2.07)">
      <path d="M256.24,22.18V48.26H251V22.18Zm93.75,0V27.4H339.55V48.26h-5.21V27.4H323.9V22.18Zm-31.25,0V48.26h-5.22V27.4H297.87V48.26h-5.22V22.18Zm-31.25,0V27.4H266.62v5.22h10.44v5.21H266.62v5.22h20.87v5.21H261.41V22.18Zm-41.63,0V27.4H225V43.05h20.87v5.21H219.77V22.18Zm-31.25,0V27.4H193.74v5.22h20.87V48.26H188.53V43.05h20.86V37.83H188.53V22.18ZM350,62.28V70.8H333v34.05h-8.51v-34h-17V62.28Zm-51,0V70.8H265v8.51H299v25.54H256.43V96.34h34.06V87.82H256.43V62.28Zm-51,0V70.8H214v8.51H248v25.54H205.43V96.34h34.06V87.82H205.43V62.28Zm-51,0v42.57h-8.51V62.28Z" fill="#ef4b59" clip-rule="evenodd"/>
    </clipPath>
  </defs>
  <g id="Layer_2" data-name="Layer 2">
    <g id="Layer_1-2" data-name="Layer 1">
      <g>
        <g>
          <path d="M156.81,73.24c-4.6.06-9.21,0-13.82.05-1.51,0-2-.51-2-2,.08-3.46.1-6.92,0-10.38-.05-1.72.64-2.15,2.24-2.12,4.49.08,9,0,13.47.05,1.48,0,2.06-.46,2-2-.08-3.57-.07-7.14,0-10.72,0-1.45-.56-1.9-1.94-1.88-4.32,0-8.64,0-13,0-2.79,0-2.75,0-2.8-2.72-.12-5,.79-10.17-1-14.95-2.55-7-8.92-10.33-16.33-10.33-2.13,0-4.26-.07-6.39,0-1.43.05-1.93-.51-1.91-1.92s0-3.88,0-3.88c0-2.81,0-5.63,0-8.44a5.58,5.58,0,0,0,0-.76C115.29.35,114.74,0,113.51,0c-3.57.09-7.14.08-10.71,0-1.29,0-1.79.44-1.88,1.5,0,.14,0,.29,0,.44,0,.45,0,8.7,0,12.39,0,1.41-.45,2-1.89,1.94-3.51-.08-7-.09-10.53,0-1.61,0-2.09-.55-2.07-2.11,0-1.23,0-9.33.06-12.14a4.33,4.33,0,0,0-.07-.86C86.24.32,85.69,0,84.5,0c-3.57.09-7.14.08-10.71,0C72.33,0,71.89.57,71.9,2v.12h0c0,4.07,0,8.16,0,12.24,0,1.53-.6,2-2,2-3.39-.08-6.78-.1-10.16,0-1.65,0-2.06-.64-2-2.15,0-1.22,0-10.79.06-12.1a3.73,3.73,0,0,0,0-.69C57.59.37,57,0,55.78,0c-3.57.09-7.14.08-10.71,0-1.25,0-1.75.4-1.87,1.39,0,.16,0,.35,0,.55,0,1,0,9.16,0,12.21,0,1.53-.44,2.18-2.06,2.12-2.64-.1-5.29-.05-7.93,0-8.71.09-14.79,5.46-16,14.08-.55,3.84-.18,7.7-.28,11.54-.05,2.35,0,2.38-2.45,2.38-3.55,0-12.84,0-13,0-1.08.11-1.52.64-1.49,2C.09,49.8.08,53.38,0,57c0,1.18.36,1.69,1.24,1.84.21,0,11.14,0,13.78,0,1.4,0,2,.45,1.93,1.89-.07,3.51-.09,7,0,10.54.05,1.61-.55,2.08-2.11,2.06-3.51,0-13.31,0-13.51,0C.37,73.44,0,74,0,75.25.09,78.82.08,82.4,0,86c0,1.25.41,1.75,1.4,1.86.16,0,9.05,0,9.05,0l4.53,0c1.53,0,2,.6,2,2q-.08,3.57-.05,7.14c0,1,0,2,.05,3,.05,1.65-.63,2-2.14,2-4.06,0-8.12,0-12.18,0h-1c-1.21.06-1.69.58-1.66,2,.09,3.57.08,7.14,0,10.72,0,1.16.35,1.67,1.19,1.83a4.22,4.22,0,0,0,.75.06c2.84,0,5.68,0,8.51,0h0l4.4,0c1.57,0,2.11.48,2.11,2.08a85,85,0,0,0,.25,10.7,16.45,16.45,0,0,0,16.05,14.57c2.65.05,5.3.08,7.95,0,1.49,0,2,.45,2,2-.08,4,0,7.95,0,11.92,0,2.1.18,2.28,2.26,2.29q5,0,10,0c2.06,0,2.23-.19,2.23-2.31,0-3.92.06-7.84,0-11.75,0-1.53.39-2.19,2-2.14,3.46.11,6.91.08,10.37,0,1.34,0,1.85.47,1.83,1.81,0,4.09,0,8.18,0,12.27,0,1.57.55,2.16,2.12,2.13,3.51-.07,7-.06,10.54,0,1.4,0,1.94-.49,1.92-1.92-.07-4.15,0-8.3,0-12.44,0-1.32.39-1.87,1.78-1.85q5.43.1,10.88,0c1.35,0,1.84.46,1.82,1.81-.06,4.09,0,8.18,0,12.28,0,1.58.56,2.15,2.11,2.12,3.51-.06,7-.05,10.54,0,1.41,0,2-.56,1.93-2,0-4.09,0-8.18,0-12.27,0-1.53.53-2.05,2-2,.5,0,1,0,1.49.05v-9.46H35.08c-5.74,0-8.46-2.67-8.46-8.46V79.87q0-23.41,0-46.84c0-5,2.11-7.09,7-7.09h90.59c8.63,0,7.12,7.32,7.12,14.11V97H141c0-2.45,0-4.9,0-7.35,0-1.33.5-1.84,1.83-1.83,4.49,0,9,0,13.48,0,2.34,0,2.38,0,2.38-2.45,0-3.4,0-6.8,0-10.2,0-1.42-.48-1.93-1.91-1.91" transform="translate(2.07 2.07)" fill="#ef4b59" fill-rule="evenodd"/>
          <g clip-path="url(#clip-path)">
            <rect width="162.86" height="164.23" fill="#ef4b59"/>
          </g>
        </g>
        <g>
          <path d="M286.21,121.38v3.31h-13.5V128h6.75v3.3h-6.75v3.31h13.5v3.31H269.33V121.38Zm-20.22,0v3.31H252.5V128H266v9.92H249.12v-3.31h13.5V131.3h-13.5v-9.92Zm-20.21,0v16.54h-3.37V124.69H232.28v13.23h-3.37V121.38Zm-20.21,0v3.31h-13.5V128h6.75v3.3h-6.75v3.31h13.5v3.31H208.7V121.38Zm-20.21,0v3.31h-13.5V128h13.5v9.92H188.49v-3.31H202V131.3H188.49v-9.92Z" transform="translate(2.07 2.07)" fill="#484848" fill-rule="evenodd"/>
          <g clip-path="url(#clip-path-2)">
            <rect x="188.49" y="121.38" width="101.85" height="20.67" fill="#484848"/>
          </g>
        </g>
        <g>
          <path d="M256.24,22.18V48.26H251V22.18Zm93.75,0V27.4H339.55V48.26h-5.21V27.4H323.9V22.18Zm-31.25,0V48.26h-5.22V27.4H297.87V48.26h-5.22V22.18Zm-31.25,0V27.4H266.62v5.22h10.44v5.21H266.62v5.22h20.87v5.21H261.41V22.18Zm-41.63,0V27.4H225V43.05h20.87v5.21H219.77V22.18Zm-31.25,0V27.4H193.74v5.22h20.87V48.26H188.53V43.05h20.86V37.83H188.53V22.18ZM350,62.28V70.8H333v34.05h-8.51v-34h-17V62.28Zm-51,0V70.8H265v8.51H299v25.54H256.43V96.34h34.06V87.82H256.43V62.28Zm-51,0V70.8H214v8.51H248v25.54H205.43V96.34h34.06V87.82H205.43V62.28Zm-51,0v42.57h-8.51V62.28Z" transform="translate(2.07 2.07)" fill="#ef4b59" fill-rule="evenodd"/>
          <g clip-path="url(#clip-path-3)">
            <rect x="188.49" y="22.18" width="165.65" height="86.8" fill="#ef4b59"/>
          </g>
        </g>
      </g>
    </g>
  </g>
</svg>
